<svg id="Capa_1" data-name="Capa 1" xmlns="http://www.w3.org/2000/svg" viewBox="0 0 202.8 30"><defs><style>.cls-1{fill:#fff;}</style></defs><title>logo</title><path class="cls-1" d="M24.09,29.79H12.15V8.37H24.09v2.21H14.64v6.9h8.88v2.2H14.64v7.88h9.45Z" transform="translate(-12.15 -7)"/><path class="cls-1" d="M28.29,22.86V20.63h7.19v2.23Z" transform="translate(-12.15 -7)"/><path class="cls-1" d="M50,10.29a7,7,0,0,0-5.57,2.35,9.46,9.46,0,0,0-2,6.44,9.71,9.71,0,0,0,2,6.5A7,7,0,0,0,50,27.87a19.07,19.07,0,0,0,5.11-.81v2.19a15.86,15.86,0,0,1-5.49.83c-3.16,0-5.59-.95-7.3-2.87s-2.57-4.63-2.57-8.16A12.93,12.93,0,0,1,41,13.25a8.93,8.93,0,0,1,3.58-3.84A10.8,10.8,0,0,1,50,8.07,13.3,13.3,0,0,1,55.92,9.3l-1.06,2.13A11.36,11.36,0,0,0,50,10.29Z" transform="translate(-12.15 -7)"/><path class="cls-1" d="M70.43,29.79,70,27.5h-.12a6.81,6.81,0,0,1-2.39,2.05,7.43,7.43,0,0,1-3,.53,5.38,5.38,0,0,1-3.75-1.23,4.5,4.5,0,0,1-1.35-3.5q0-4.86,7.78-5.1l2.72-.08v-1a4.08,4.08,0,0,0-.81-2.79,3.34,3.34,0,0,0-2.6-.9,10.59,10.59,0,0,0-4.54,1.23l-.75-1.86a11.25,11.25,0,0,1,2.6-1,11,11,0,0,1,2.83-.37,6.11,6.11,0,0,1,4.26,1.28,5.31,5.31,0,0,1,1.38,4.08v11Zm-5.49-1.71a5,5,0,0,0,3.57-1.25,4.62,4.62,0,0,0,1.29-3.49V21.89L67.37,22a8.76,8.76,0,0,0-4.18.9,2.7,2.7,0,0,0-1.28,2.48,2.51,2.51,0,0,0,.79,2A3.33,3.33,0,0,0,64.94,28.08Z" transform="translate(-12.15 -7)"/><path class="cls-1" d="M89.4,29.79V19.4a4.23,4.23,0,0,0-.89-2.93,3.67,3.67,0,0,0-2.8-1A4.6,4.6,0,0,0,82,16.87q-1.17,1.36-1.17,4.5v8.42H78.41V13.73h2l.4,2.2h.11A5,5,0,0,1,83,14.09a6.87,6.87,0,0,1,3-.65,6.12,6.12,0,0,1,4.37,1.4,6,6,0,0,1,1.46,4.48V29.79Z" transform="translate(-12.15 -7)"/><path class="cls-1" d="M108.92,27.64h-.13a5.7,5.7,0,0,1-5,2.44,6,6,0,0,1-4.9-2.15,9.53,9.53,0,0,1-1.75-6.12,9.64,9.64,0,0,1,1.76-6.17,5.9,5.9,0,0,1,4.89-2.2,5.84,5.84,0,0,1,5,2.37H109l-.1-1.15-.06-1.13V7h2.43V29.79h-2Zm-4.86.41a4.44,4.44,0,0,0,3.61-1.36,6.82,6.82,0,0,0,1.12-4.37v-.51c0-2.28-.38-3.9-1.13-4.87A4.3,4.3,0,0,0,104,15.48a3.71,3.71,0,0,0-3.27,1.66,8.23,8.23,0,0,0-1.14,4.69,8,8,0,0,0,1.13,4.65A3.84,3.84,0,0,0,104.06,28.05Z" transform="translate(-12.15 -7)"/><path class="cls-1" d="M120,29.79h-2.43V7H120Z" transform="translate(-12.15 -7)"/><path class="cls-1" d="M133.09,30.08a7.37,7.37,0,0,1-5.62-2.17,8.39,8.39,0,0,1-2-6,9.27,9.27,0,0,1,1.91-6.16,6.32,6.32,0,0,1,5.13-2.29,6.06,6.06,0,0,1,4.78,2A7.6,7.6,0,0,1,139,20.66V22.2H127.93a6.36,6.36,0,0,0,1.43,4.29A5,5,0,0,0,133.18,28a12.82,12.82,0,0,0,5.13-1.09V29a13.06,13.06,0,0,1-2.44.8A13.9,13.9,0,0,1,133.09,30.08Zm-.66-14.6a4,4,0,0,0-3.08,1.26A5.8,5.8,0,0,0,128,20.22h8.4a5.37,5.37,0,0,0-1-3.52A3.62,3.62,0,0,0,132.43,15.48Z" transform="translate(-12.15 -7)"/><path class="cls-1" d="M156.76,24.09a5.23,5.23,0,0,1-2,4.41,8.93,8.93,0,0,1-5.57,1.58,14,14,0,0,1-5.86-1V26.7a15.92,15.92,0,0,0,2.88.88,15.39,15.39,0,0,0,3.07.32A6.28,6.28,0,0,0,153,27a3.12,3.12,0,0,0,1.26-2.63,3.35,3.35,0,0,0-.45-1.83,4.08,4.08,0,0,0-1.49-1.31,21.17,21.17,0,0,0-3.19-1.36,10.16,10.16,0,0,1-4.27-2.54,5.6,5.6,0,0,1-1.28-3.82,4.76,4.76,0,0,1,1.86-3.94,7.71,7.71,0,0,1,4.92-1.46,14.56,14.56,0,0,1,5.88,1.17l-.78,2.17a13.13,13.13,0,0,0-5.15-1.12,5,5,0,0,0-3.09.85,2.79,2.79,0,0,0-1.12,2.36,3.63,3.63,0,0,0,.41,1.82,3.93,3.93,0,0,0,1.39,1.31,17.7,17.7,0,0,0,3,1.31,11.74,11.74,0,0,1,4.63,2.58A5,5,0,0,1,156.76,24.09Z" transform="translate(-12.15 -7)"/><path class="cls-1" d="M172.93,29.79V19.4a4.23,4.23,0,0,0-.89-2.93,3.67,3.67,0,0,0-2.8-1,4.61,4.61,0,0,0-3.7,1.37c-.78.92-1.16,2.43-1.16,4.52v8.39h-2.44V7h2.44v6.9a14.63,14.63,0,0,1-.12,2.06h.15a4.83,4.83,0,0,1,2-1.82,6.55,6.55,0,0,1,3-.67,6.2,6.2,0,0,1,4.42,1.4,5.89,5.89,0,0,1,1.47,4.45V29.79Z" transform="translate(-12.15 -7)"/><path class="cls-1" d="M195.38,21.75a8.86,8.86,0,0,1-2,6.13,7,7,0,0,1-5.47,2.2,7.17,7.17,0,0,1-3.82-1,6.7,6.7,0,0,1-2.58-2.9,10.17,10.17,0,0,1-.91-4.42,8.85,8.85,0,0,1,2-6.12,6.94,6.94,0,0,1,5.45-2.19,6.8,6.8,0,0,1,5.35,2.24A8.86,8.86,0,0,1,195.38,21.75Zm-12.23,0a7.59,7.59,0,0,0,1.23,4.68A4.27,4.27,0,0,0,188,28.05a4.32,4.32,0,0,0,3.63-1.61,7.6,7.6,0,0,0,1.24-4.69,7.49,7.49,0,0,0-1.24-4.65A4.37,4.37,0,0,0,188,15.51a4.28,4.28,0,0,0-3.6,1.56A7.58,7.58,0,0,0,183.15,21.75Z" transform="translate(-12.15 -7)"/><path class="cls-1" d="M208.29,30.08a6.91,6.91,0,0,1-2.87-.58,5.32,5.32,0,0,1-2.17-1.78h-.18a21.13,21.13,0,0,1,.18,2.67V37h-2.43V13.73h2l.34,2.2h.12a5.58,5.58,0,0,1,2.18-1.9,6.64,6.64,0,0,1,2.86-.59,6,6,0,0,1,4.93,2.18A9.68,9.68,0,0,1,215,21.75a9.59,9.59,0,0,1-1.76,6.14A6,6,0,0,1,208.29,30.08Zm-.35-14.57a4.3,4.3,0,0,0-3.56,1.36,7,7,0,0,0-1.13,4.34v.54c0,2.25.38,3.87,1.13,4.84A4.28,4.28,0,0,0,208,28.05a3.76,3.76,0,0,0,3.25-1.69,8,8,0,0,0,1.18-4.64,7.68,7.68,0,0,0-1.18-4.61A3.86,3.86,0,0,0,207.94,15.51Z" transform="translate(-12.15 -7)"/></svg>